<?xml version="1.0" encoding="UTF-8"?>
<svg version="1.1" xmlns="http://www.w3.org/2000/svg" width="489" height="511">
<path d="M0 0 C1.24 3.71 0.75 6.74 0.29 10.54 C0.21 11.29 0.12 12.04 0.03 12.81 C-0.24 15.23 -0.53 17.65 -0.81 20.06 C-0.99 21.63 -1.17 23.2 -1.35 24.77 C-1.72 27.92 -2.08 31.08 -2.45 34.23 C-3.87 46.47 -5.21 58.7 -6.3 70.97 C-6.67 75.04 -7.07 79.01 -8 83 C-9.32 82.67 -10.64 82.34 -12 82 C-12 81.34 -12 80.68 -12 80 C-12.56 79.77 -13.11 79.55 -13.68 79.31 C-16.67 77.62 -18.69 75.46 -21.06 73 C-23.65 70.32 -25.89 68.07 -29 66 C-29 65.34 -29 64.68 -29 64 C-29.66 64 -30.32 64 -31 64 C-31 63.34 -31 62.68 -31 62 C-36.8 66.86 -36.8 66.86 -41.88 72.44 C-42.58 73.28 -43.28 74.13 -44 75 C-44.66 75 -45.32 75 -46 75 C-46.26 75.57 -46.52 76.14 -46.78 76.73 C-48.11 79.21 -49.65 81.13 -51.5 83.25 C-52.11 83.96 -52.72 84.66 -53.34 85.39 C-55 87 -55 87 -57 87 C-57 87.66 -57 88.32 -57 89 C-57.66 89 -58.32 89 -59 89 C-59.24 89.57 -59.49 90.14 -59.74 90.73 C-61.23 93.4 -62.98 95.14 -65.19 97.25 C-68.09 100.08 -70.87 102.92 -73.5 106 C-76.85 109.92 -80.48 113.52 -84.18 117.12 C-86.06 118.88 -86.06 118.88 -87 121 C-87.66 121 -88.32 121 -89 121 C-89.26 121.58 -89.52 122.16 -89.79 122.76 C-91.09 125.16 -92.52 126.82 -94.41 128.79 C-95.07 129.48 -95.73 130.18 -96.41 130.89 C-97.44 131.97 -97.44 131.97 -98.5 133.06 C-99.87 134.49 -101.23 135.92 -102.59 137.35 C-103.2 137.98 -103.8 138.61 -104.43 139.25 C-106.18 141.12 -106.18 141.12 -108 144 C-108.66 144 -109.32 144 -110 144 C-110 144.66 -110 145.32 -110 146 C-113.45 144.52 -115.67 142.57 -118.31 139.92 C-119.57 138.66 -119.57 138.66 -120.86 137.37 C-121.75 136.46 -122.65 135.55 -123.58 134.62 C-124.5 133.69 -125.43 132.76 -126.39 131.8 C-128.84 129.34 -131.29 126.87 -133.74 124.39 C-136.25 121.87 -138.76 119.35 -141.27 116.83 C-146.18 111.89 -151.09 106.95 -156 102 C-155.04 100.71 -154.08 99.42 -153.12 98.12 C-152.59 97.41 -152.06 96.69 -151.51 95.95 C-150 94 -150 94 -148 92 C-144.62 92.33 -142.95 93.69 -140.61 96.05 C-139.97 96.69 -139.33 97.33 -138.67 97.99 C-137.99 98.69 -137.31 99.38 -136.61 100.1 C-135.9 100.81 -135.2 101.52 -134.47 102.25 C-132.23 104.51 -129.99 106.79 -127.75 109.06 C-126.23 110.6 -124.7 112.14 -123.18 113.67 C-119.45 117.44 -115.72 121.22 -112 125 C-110.83 123.8 -110.83 123.8 -109.64 122.57 C-107 120 -107 120 -104.81 118.94 C-102.84 118.15 -102.84 118.15 -102.09 116.14 C-100.92 113.84 -99.69 112.52 -97.81 110.75 C-95.36 108.37 -93.04 105.96 -90.81 103.38 C-79.52 90.3 -67.44 77.85 -55.56 65.31 C-54.83 64.54 -54.1 63.76 -53.35 62.97 C-51.93 61.48 -50.52 59.98 -49.1 58.5 C-48.46 57.82 -47.83 57.14 -47.17 56.45 C-46.32 55.56 -46.32 55.56 -45.46 54.65 C-43.81 52.86 -43.81 52.86 -42 50 C-41.34 50 -40.68 50 -40 50 C-40 49.34 -40 48.68 -40 48 C-38.62 46.38 -38.62 46.38 -37 45 C-36.34 45 -35.68 45 -35 45 C-35 44.34 -35 43.68 -35 43 C-34.01 42.67 -33.02 42.34 -32 42 C-31.34 42.33 -30.68 42.66 -30 43 C-30 43.66 -30 44.32 -30 45 C-29.01 45.33 -28.02 45.66 -27 46 C-27 46.66 -27 47.32 -27 48 C-26.34 48 -25.68 48 -25 48 C-25 48.66 -25 49.32 -25 50 C-24.34 50 -23.68 50 -23 50 C-23 50.66 -23 51.32 -23 52 C-22.34 52 -21.68 52 -21 52 C-21 52.66 -21 53.32 -21 54 C-20.34 54 -19.68 54 -19 54 C-19.02 53.37 -19.05 52.73 -19.07 52.08 C-19.22 44.25 -18.56 36.62 -17.71 28.86 C-17.58 27.61 -17.58 27.61 -17.44 26.34 C-17.35 25.6 -17.27 24.86 -17.18 24.1 C-17.01 22.07 -17 20.03 -17 18 C-17.79 18.15 -18.57 18.3 -19.38 18.46 C-22.96 19.15 -26.54 19.82 -30.12 20.5 C-31.36 20.74 -32.6 20.98 -33.88 21.22 C-35.67 21.56 -35.67 21.56 -37.51 21.91 C-39.16 22.22 -39.16 22.22 -40.84 22.54 C-43.94 22.99 -46.87 23.08 -50 23 C-49.34 23.78 -48.68 24.57 -48 25.38 C-46 28 -46 28 -46 30 C-45.4 30.27 -44.8 30.54 -44.19 30.81 C-41.95 32.02 -40.5 32.95 -39 35 C-39.43 38.34 -40.75 40.25 -42.94 42.75 C-43.46 43.36 -43.99 43.98 -44.53 44.61 C-46 46 -46 46 -48 46 C-48.25 46.58 -48.51 47.17 -48.77 47.77 C-50.13 50.24 -51.64 51.81 -53.69 53.75 C-56.4 56.39 -58.98 59.06 -61.44 61.94 C-64.79 65.84 -68.4 69.43 -72.08 73.02 C-74.16 75.05 -74.16 75.05 -76 78 C-76.66 78 -77.32 78 -78 78 C-78 78.66 -78 79.32 -78 80 C-78.66 80 -79.32 80 -80 80 C-80.25 80.57 -80.49 81.15 -80.75 81.74 C-82.2 84.36 -83.9 86.06 -86.06 88.12 C-88.92 90.78 -88.92 90.78 -91 94 C-91.66 94 -92.32 94 -93 94 C-93.27 94.59 -93.54 95.18 -93.82 95.79 C-96.74 101.27 -101.59 105.71 -106 110 C-106.68 110.78 -107.36 111.57 -108.06 112.38 C-108.7 112.91 -109.34 113.45 -110 114 C-112.4 113.79 -113.86 113.07 -116 112 C-116 111.34 -116 110.68 -116 110 C-116.99 109.67 -117.98 109.34 -119 109 C-119 108.34 -119 107.68 -119 107 C-119.66 107 -120.32 107 -121 107 C-121 106.34 -121 105.68 -121 105 C-121.66 105 -122.32 105 -123 105 C-123 104.34 -123 103.68 -123 103 C-123.99 102.67 -124.98 102.34 -126 102 C-126 101.34 -126 100.68 -126 100 C-126.66 100 -127.32 100 -128 100 C-128 99.34 -128 98.68 -128 98 C-128.66 98 -129.32 98 -130 98 C-130 97.34 -130 96.68 -130 96 C-130.64 95.73 -131.28 95.46 -131.94 95.19 C-134 94 -134 94 -135 91 C-135.66 91 -136.32 91 -137 91 C-137 90.34 -137 89.68 -137 89 C-137.66 89 -138.32 89 -139 89 C-139 88.34 -139 87.68 -139 87 C-140.49 86.5 -140.49 86.5 -142 86 C-142 85.34 -142 84.68 -142 84 C-142.66 84 -143.32 84 -144 84 C-144 83.34 -144 82.68 -144 82 C-144.66 82 -145.32 82 -146 82 C-146 81.34 -146 80.68 -146 80 C-147.45 81.18 -147.45 81.18 -148.94 82.38 C-149.48 82.82 -150.03 83.26 -150.59 83.71 C-152.13 84.97 -152.13 84.97 -153 87 C-153.66 87 -154.32 87 -155 87 C-155.27 87.59 -155.54 88.18 -155.81 88.79 C-157.01 91.02 -158.26 92.56 -160 94.38 C-160.58 94.99 -161.16 95.6 -161.75 96.23 C-162.65 97.17 -162.65 97.17 -163.56 98.12 C-164.75 99.38 -165.94 100.63 -167.13 101.88 C-167.66 102.43 -168.18 102.98 -168.72 103.55 C-170.1 104.99 -170.1 104.99 -171 107 C-171.66 107 -172.32 107 -173 107 C-173.26 107.57 -173.52 108.14 -173.78 108.73 C-175.11 111.21 -176.65 113.13 -178.5 115.25 C-179.11 115.96 -179.72 116.66 -180.34 117.39 C-182 119 -182 119 -184 119 C-184.27 119.58 -184.54 120.17 -184.81 120.77 C-186.01 123.03 -187.34 124.81 -189 126.75 C-189.52 127.36 -190.03 127.98 -190.56 128.61 C-192 130 -192 130 -194 130 C-194 130.66 -194 131.32 -194 132 C-194.66 132 -195.32 132 -196 132 C-196.33 132.81 -196.33 132.81 -196.68 133.64 C-198.42 136.75 -200.75 139.18 -203.19 141.75 C-204.19 142.83 -205.2 143.91 -206.2 144.98 C-206.68 145.5 -207.17 146.02 -207.67 146.56 C-209.32 148.34 -210.91 150.16 -212.5 152 C-215.44 155.39 -218.46 158.7 -221.5 162 C-228.89 169.81 -228.89 169.81 -235.56 178.22 C-236.04 178.81 -236.51 179.39 -237 180 C-237.66 180 -238.32 180 -239 180 C-239.33 180.99 -239.66 181.98 -240 183 C-240.99 183.33 -241.98 183.66 -243 184 C-245.97 181.36 -248.94 178.72 -252 176 C-251.08 172.31 -250.45 170.74 -248 168 C-247.34 168 -246.68 168 -246 168 C-246 167.34 -246 166.68 -246 166 C-245.34 166 -244.68 166 -244 166 C-243.73 165.41 -243.46 164.82 -243.19 164.21 C-241.99 161.98 -240.74 160.44 -239 158.62 C-238.42 158.01 -237.84 157.4 -237.25 156.77 C-236.65 156.14 -236.05 155.52 -235.44 154.88 C-234.25 153.62 -233.06 152.37 -231.87 151.12 C-231.34 150.57 -230.82 150.02 -230.28 149.45 C-228.9 148.01 -228.9 148.01 -228 146 C-227.34 146 -226.68 146 -226 146 C-225.67 145.19 -225.67 145.19 -225.32 144.36 C-223.58 141.25 -221.25 138.82 -218.81 136.25 C-217.82 135.18 -216.82 134.12 -215.83 133.05 C-215.35 132.53 -214.86 132.01 -214.37 131.47 C-209.14 125.84 -209.14 125.84 -204.44 119.78 C-203.96 119.19 -203.49 118.61 -203 118 C-202.34 118 -201.68 118 -201 118 C-200.74 117.41 -200.47 116.81 -200.2 116.2 C-198.96 113.92 -197.7 112.53 -195.81 110.75 C-191.26 106.33 -187.16 101.56 -183.07 96.71 C-182.45 95.98 -181.83 95.25 -181.19 94.5 C-180.62 93.83 -180.06 93.16 -179.48 92.47 C-178 91 -178 91 -176 91 C-175.79 90.48 -175.59 89.95 -175.38 89.41 C-173.4 85.96 -170.73 83.3 -168 80.44 C-166.91 79.29 -165.83 78.15 -164.75 77 C-164.27 76.49 -163.79 75.99 -163.3 75.47 C-161.78 73.82 -161.78 73.82 -160 71 C-159.34 71 -158.68 71 -158 71 C-157.74 70.43 -157.49 69.86 -157.23 69.27 C-155.87 66.76 -154.28 64.87 -152.38 62.75 C-151.43 61.69 -151.43 61.69 -150.46 60.61 C-149.98 60.08 -149.5 59.55 -149 59 C-146 60.35 -143.92 61.84 -141.61 64.16 C-140.65 65.13 -140.65 65.13 -139.67 66.11 C-138.99 66.8 -138.31 67.48 -137.61 68.2 C-136.9 68.9 -136.2 69.61 -135.47 70.34 C-133.23 72.6 -130.99 74.86 -128.75 77.12 C-127.23 78.66 -125.7 80.19 -124.18 81.72 C-120.45 85.48 -116.72 89.24 -113 93 C-109.24 91.31 -107.55 89.23 -105 86 C-104.34 86 -103.68 86 -103 86 C-102.77 85.46 -102.55 84.93 -102.31 84.38 C-99.69 79.62 -96.22 76.11 -92.12 72.62 C-87.31 68.52 -83.07 63.94 -79.43 58.76 C-78.96 58.18 -78.48 57.6 -78 57 C-77.34 57 -76.68 57 -76 57 C-75.73 56.4 -75.46 55.8 -75.19 55.19 C-74 53 -72.9 51.59 -71 50 C-70.34 50 -69.68 50 -69 50 C-69 49.34 -69 48.68 -69 48 C-68.34 48 -67.68 48 -67 48 C-66.73 47.2 -66.46 46.39 -66.19 45.56 C-65.8 44.72 -65.4 43.87 -65 43 C-64.01 42.67 -63.02 42.34 -62 42 C-60.58 38.97 -59.71 37.04 -60.62 33.75 C-61.88 31.89 -61.88 31.89 -63.87 31.09 C-66.17 29.92 -67.63 28.63 -69.45 26.81 C-70.07 26.2 -70.69 25.58 -71.33 24.95 C-71.96 24.3 -72.6 23.66 -73.25 23 C-74.22 22.04 -74.22 22.04 -75.22 21.05 C-75.83 20.44 -76.45 19.82 -77.08 19.19 C-77.92 18.34 -77.92 18.34 -78.78 17.48 C-80 16 -80 16 -80 14 C-79.01 13.81 -78.02 13.63 -77 13.44 C-72.35 12.56 -67.71 11.69 -63.06 10.81 C-62.22 10.65 -61.38 10.5 -60.52 10.33 C-49.02 8.16 -37.53 5.95 -26.07 3.6 C-21.29 2.62 -16.5 1.71 -11.69 0.86 C-10.75 0.7 -9.8 0.53 -8.83 0.36 C-5.85 -0.02 -2.99 -0.06 0 0 Z " fill="#F5C518" transform="translate(369,120)"/>
<path d="M0 0 C1.08 0 2.15 0 3.26 0 C4.39 0 5.52 0 6.69 0.01 C7.82 0 8.95 0 10.12 0 C11.19 0 12.27 0 13.38 0 C14.37 0 15.36 0 16.39 0 C18.69 0.13 18.69 0.13 19.69 1.13 C19.78 2.56 19.81 4 19.81 5.43 C19.81 6.82 19.81 6.82 19.81 8.24 C19.81 9.78 19.81 9.78 19.8 11.34 C19.8 12.42 19.8 13.49 19.8 14.6 C19.8 18.16 19.79 21.73 19.79 25.29 C19.78 27.76 19.78 30.22 19.78 32.69 C19.78 39.19 19.77 45.69 19.76 52.19 C19.75 58.82 19.74 65.45 19.74 72.08 C19.73 85.1 19.71 98.12 19.69 111.13 C22.33 111.13 24.97 111.13 27.69 111.13 C27.69 77.8 27.69 44.47 27.69 10.13 C28.68 10.13 29.67 10.13 30.69 10.13 C30.69 10.79 30.69 11.45 30.69 12.13 C31.68 12.46 32.67 12.79 33.69 13.13 C35.4 14.76 37.06 16.43 38.69 18.13 C39.29 18.69 39.88 19.25 40.5 19.82 C41.69 21.13 41.69 21.13 41.69 23.13 C42.24 23.34 42.8 23.55 43.38 23.76 C46.56 25.65 48.39 28.25 50.69 31.13 C51.23 31.54 51.76 31.94 52.32 32.36 C54.47 35.15 54.08 38.16 54.03 41.54 C54.03 42.29 54.03 43.04 54.03 43.82 C54.03 46.3 54 48.79 53.98 51.27 C53.97 52.99 53.97 54.71 53.97 56.44 C53.96 60.97 53.93 65.5 53.89 70.03 C53.86 74.66 53.85 79.28 53.83 83.91 C53.8 92.98 53.75 102.06 53.69 111.13 C54.76 111.09 54.76 111.09 55.85 111.04 C59.11 110.92 62.38 110.84 65.65 110.77 C66.77 110.72 67.89 110.67 69.05 110.62 C76.82 110.48 81.49 111.7 87.25 117.01 C89.28 118.98 90.95 120.89 92.69 123.13 C92.69 123.79 92.69 124.45 92.69 125.13 C88.2 126 83.97 126.26 79.4 126.26 C78.69 126.26 77.98 126.26 77.25 126.26 C74.88 126.27 72.51 126.27 70.14 126.26 C68.44 126.26 66.73 126.27 65.03 126.27 C60.41 126.27 55.8 126.27 51.18 126.27 C46.35 126.26 41.52 126.27 36.69 126.27 C28.59 126.27 20.48 126.27 12.38 126.26 C2.99 126.26 -6.39 126.26 -15.77 126.27 C-23.82 126.27 -31.87 126.27 -39.92 126.27 C-44.73 126.27 -49.54 126.27 -54.35 126.27 C-58.87 126.27 -63.38 126.27 -67.9 126.26 C-69.56 126.26 -71.23 126.26 -72.89 126.27 C-75.15 126.27 -77.41 126.26 -79.66 126.26 C-80.93 126.26 -82.2 126.26 -83.5 126.26 C-86.31 126.13 -86.31 126.13 -87.31 125.13 C-87.39 122.78 -87.4 120.42 -87.38 118.07 C-87.37 116.78 -87.36 115.49 -87.35 114.16 C-87.34 113.16 -87.32 112.16 -87.31 111.13 C-83.02 111.13 -78.73 111.13 -74.31 111.13 C-74.35 110.02 -74.39 108.9 -74.42 107.76 C-74.55 103.6 -74.63 99.44 -74.7 95.28 C-74.73 93.49 -74.78 91.69 -74.84 89.9 C-75.33 74.98 -75.33 74.98 -72.86 70.51 C-71.1 68.76 -69.39 67.46 -67.31 66.13 C-66.02 64.73 -64.75 63.32 -63.5 61.88 C-62.94 61.24 -62.37 60.59 -61.79 59.93 C-60.15 57.99 -60.15 57.99 -58.31 55.13 C-57.65 55.13 -56.99 55.13 -56.31 55.13 C-56.04 54.49 -55.78 53.85 -55.5 53.2 C-54.31 51.13 -54.31 51.13 -51.31 50.13 C-51.31 49.47 -51.31 48.81 -51.31 48.13 C-50.32 48.46 -49.33 48.79 -48.31 49.13 C-48.31 69.59 -48.31 90.05 -48.31 111.13 C-45.67 111.13 -43.03 111.13 -40.31 111.13 C-40.31 110.22 -40.32 109.31 -40.32 108.37 C-40.34 99.79 -40.35 91.21 -40.36 82.63 C-40.37 78.22 -40.38 73.81 -40.39 69.4 C-40.4 65.14 -40.4 60.89 -40.41 56.64 C-40.41 55.01 -40.41 53.38 -40.42 51.76 C-40.43 49.49 -40.43 47.22 -40.43 44.95 C-40.43 43.65 -40.43 42.36 -40.43 41.02 C-40.31 38.13 -40.31 38.13 -39.31 37.13 C-37.54 37.03 -35.77 37 -34 37 C-32.92 37 -31.85 37 -30.74 37 C-29.61 37 -28.48 37 -27.31 37.01 C-26.18 37 -25.05 37 -23.88 37 C-22.81 37 -21.73 37 -20.62 37 C-19.63 37 -18.64 37 -17.61 37 C-15.31 37.13 -15.31 37.13 -14.31 38.13 C-14.22 40.4 -14.2 42.68 -14.2 44.95 C-14.2 45.66 -14.2 46.37 -14.2 47.11 C-14.2 49.47 -14.21 51.83 -14.21 54.2 C-14.22 55.83 -14.22 57.47 -14.22 59.1 C-14.22 63.42 -14.23 67.73 -14.24 72.04 C-14.25 76.44 -14.26 80.84 -14.26 85.23 C-14.27 93.87 -14.29 102.5 -14.31 111.13 C-11.67 111.13 -9.03 111.13 -6.31 111.13 C-6.31 110.57 -6.31 110 -6.32 109.42 C-6.34 95.66 -6.35 81.91 -6.36 68.16 C-6.37 61.51 -6.38 54.86 -6.39 48.21 C-6.4 41.79 -6.4 35.38 -6.41 28.97 C-6.41 26.52 -6.41 24.06 -6.42 21.61 C-6.43 18.19 -6.43 14.77 -6.43 11.34 C-6.43 10.32 -6.43 9.29 -6.44 8.24 C-6.44 7.31 -6.43 6.38 -6.43 5.43 C-6.43 4.62 -6.43 3.81 -6.44 2.97 C-6.17 -0.96 -3.29 0 0 0 Z " fill="#F5C518" transform="translate(201.31,244.87)"/>
<path d="M0 0 C4.36 1.68 7.22 4.93 10.45 8.18 C11.06 8.79 11.67 9.4 12.3 10.03 C13.59 11.31 14.87 12.6 16.15 13.89 C18.12 15.87 20.09 17.83 22.07 19.79 C23.32 21.05 24.57 22.3 25.82 23.55 C26.41 24.14 27 24.73 27.61 25.33 C30.29 28.05 32.58 30.38 34 34 C34.33 34.66 34.66 35.32 35 36 C37.53 36.66 37.53 36.66 40 37 C40 36.34 40 35.68 40 35 C41.32 34.67 42.64 34.34 44 34 C46.38 45.88 46.38 45.88 43.66 50.07 C42.17 51.8 40.65 53.43 39 55 C36.83 54.49 35 54 33 53 C33 52.34 33 51.68 33 51 C32.01 50.67 31.02 50.34 30 50 C30 49.34 30 48.68 30 48 C29.34 48 28.68 48 28 48 C28 47.34 28 46.68 28 46 C27.34 46 26.68 46 26 46 C26 45.34 26 44.68 26 44 C25.01 43.67 24.02 43.34 23 43 C23 42.34 23 41.68 23 41 C22.34 41 21.68 41 21 41 C21 40.34 21 39.68 21 39 C20.34 39 19.68 39 19 39 C19 38.34 19 37.68 19 37 C18.36 36.73 17.72 36.46 17.06 36.19 C15 35 15 35 14 32 C13.34 32 12.68 32 12 32 C12 31.34 12 30.68 12 30 C11.34 30 10.68 30 10 30 C10 29.34 10 28.68 10 28 C8.52 27.5 8.52 27.5 7 27 C7 26.34 7 25.68 7 25 C6.34 25 5.68 25 5 25 C5 24.34 5 23.68 5 23 C4.34 23 3.68 23 3 23 C3 22.34 3 21.68 3 21 C2.03 21.78 1.06 22.57 0.06 23.38 C-0.48 23.82 -1.03 24.26 -1.59 24.71 C-3.13 25.97 -3.13 25.97 -4 28 C-4.66 28 -5.32 28 -6 28 C-6.27 28.59 -6.54 29.18 -6.81 29.79 C-8.01 32.02 -9.26 33.56 -11 35.38 C-11.58 35.99 -12.16 36.6 -12.75 37.23 C-13.35 37.86 -13.95 38.48 -14.56 39.12 C-15.75 40.38 -16.94 41.63 -18.13 42.88 C-18.66 43.43 -19.18 43.98 -19.72 44.55 C-21.1 45.99 -21.1 45.99 -22 48 C-22.66 48 -23.32 48 -24 48 C-24.26 48.57 -24.52 49.14 -24.78 49.73 C-26.11 52.21 -27.65 54.13 -29.5 56.25 C-30.11 56.96 -30.72 57.66 -31.34 58.39 C-33 60 -33 60 -35 60 C-35.27 60.58 -35.54 61.17 -35.81 61.77 C-37.01 64.03 -38.34 65.81 -40 67.75 C-40.52 68.36 -41.03 68.98 -41.56 69.61 C-43 71 -43 71 -45 71 C-45 71.66 -45 72.32 -45 73 C-45.66 73 -46.32 73 -47 73 C-47.22 73.54 -47.45 74.08 -47.68 74.64 C-49.42 77.75 -51.75 80.18 -54.19 82.75 C-55.19 83.83 -56.2 84.91 -57.2 85.98 C-57.68 86.5 -58.17 87.02 -58.67 87.56 C-60.32 89.34 -61.91 91.16 -63.5 93 C-66.44 96.39 -69.46 99.7 -72.5 103 C-79.89 110.81 -79.89 110.81 -86.56 119.22 C-87.27 120.1 -87.27 120.1 -88 121 C-88.66 121 -89.32 121 -90 121 C-90.33 121.99 -90.66 122.98 -91 124 C-92.48 124.5 -92.48 124.5 -94 125 C-96.97 122.36 -99.94 119.72 -103 117 C-102.08 113.31 -101.45 111.74 -99 109 C-98.34 109 -97.68 109 -97 109 C-97 108.34 -97 107.68 -97 107 C-96.34 107 -95.68 107 -95 107 C-94.73 106.41 -94.46 105.82 -94.19 105.21 C-92.99 102.98 -91.74 101.44 -90 99.62 C-89.42 99.01 -88.84 98.4 -88.25 97.77 C-87.35 96.83 -87.35 96.83 -86.44 95.88 C-85.25 94.62 -84.06 93.37 -82.87 92.12 C-82.34 91.57 -81.82 91.02 -81.28 90.45 C-79.9 89.01 -79.9 89.01 -79 87 C-78.34 87 -77.68 87 -77 87 C-76.78 86.46 -76.55 85.92 -76.32 85.36 C-74.58 82.25 -72.25 79.82 -69.81 77.25 C-68.82 76.18 -67.82 75.12 -66.83 74.05 C-66.11 73.27 -66.11 73.27 -65.37 72.47 C-60.14 66.84 -60.14 66.84 -55.44 60.78 C-54.96 60.19 -54.49 59.61 -54 59 C-53.34 59 -52.68 59 -52 59 C-51.6 58.11 -51.6 58.11 -51.2 57.2 C-49.96 54.92 -48.7 53.53 -46.81 51.75 C-42.26 47.33 -38.16 42.56 -34.07 37.71 C-33.45 36.98 -32.83 36.25 -32.19 35.5 C-31.62 34.83 -31.06 34.16 -30.48 33.47 C-29 32 -29 32 -27 32 C-26.79 31.48 -26.59 30.95 -26.38 30.41 C-24.4 26.96 -21.73 24.3 -19 21.44 C-17.91 20.29 -16.83 19.15 -15.75 18 C-15.27 17.49 -14.79 16.99 -14.3 16.47 C-12.78 14.82 -12.78 14.82 -11 12 C-10.34 12 -9.68 12 -9 12 C-8.62 11.14 -8.62 11.14 -8.23 10.27 C-6.87 7.76 -5.28 5.87 -3.38 3.75 C-2.43 2.69 -2.43 2.69 -1.46 1.61 C-0.98 1.08 -0.5 0.55 0 0 Z " fill="#F5C518" transform="translate(220,179)"/>
<path d="M0 0 C0.99 0.49 0.99 0.49 2 1 C2 21.13 2 41.26 2 62 C4.97 62.66 7.94 63.32 11 64 C13.81 65.18 13.81 65.18 16 66.44 C16.74 66.85 17.48 67.26 18.25 67.68 C20 69 20 69 21 72 C19.86 74.23 19.86 74.23 18.19 76.62 C17.64 77.42 17.1 78.22 16.54 79.04 C15 81 15 81 13 82 C11.3 81.03 9.6 80.06 7.93 79.06 C2.4 76.02 -3.81 74.93 -9.96 76.5 C-12.15 77.22 -12.15 77.22 -15 79 C-16.2 81.76 -16.16 83.22 -15.56 86.12 C-11.92 90.5 -5.47 91.12 -0.17 92.28 C8.81 94.29 15.32 97.05 21 104.69 C23.58 110.66 23.89 116.82 22 123.06 C19.62 128.82 14.69 132.56 9.31 135.44 C7 136 7 136 2 136 C2 143.92 2 151.84 2 160 C11.57 160 21.14 160 31 160 C31 164.62 31 169.24 31 174 C26.11 174.82 21.72 175.12 16.81 175.02 C15.64 175 15.64 175 14.45 174.98 C12.8 174.94 11.16 174.91 9.51 174.87 C7.04 174.81 4.56 174.78 2.09 174.76 C-18.33 174.37 -34.83 168.05 -49.45 153.65 C-63.79 138.76 -69.67 120.85 -69.47 100.49 C-68.84 80.17 -60.28 64.73 -47 50 C-46.09 48.88 -45.19 47.75 -44.29 46.62 C-43.53 45.76 -42.78 44.89 -42 44 C-41.34 44 -40.68 44 -40 44 C-39.73 43.42 -39.46 42.84 -39.19 42.25 C-37.97 39.94 -36.7 37.98 -35 36 C-34.34 36 -33.68 36 -33 36 C-33 35.34 -33 34.68 -33 34 C-31.62 32.38 -31.62 32.38 -30 31 C-29.34 31 -28.68 31 -28 31 C-27.77 30.45 -27.55 29.89 -27.32 29.32 C-25.61 26.31 -23.42 24.27 -20.94 21.88 C-17.54 18.76 -17.54 18.76 -15 15 C-14.34 15 -13.68 15 -13 15 C-12.75 14.42 -12.5 13.85 -12.25 13.25 C-10.82 10.68 -9.18 8.98 -7.06 6.94 C-6.37 6.27 -5.68 5.59 -4.97 4.9 C-4.32 4.27 -3.67 3.65 -3 3 C-2 2 -1 1 0 0 Z M-17.56 39.38 C-18.52 40.31 -18.52 40.31 -19.5 41.27 C-21.22 42.87 -21.22 42.87 -21 45 C-21.66 45 -22.32 45 -23 45 C-24.43 46.38 -24.43 46.38 -25.94 48.25 C-28.57 51.36 -31.27 54.38 -34.07 57.35 C-47.63 71.82 -55.65 86.42 -55.25 106.68 C-54.22 120.51 -48.79 134.01 -39 144 C-35.14 147.22 -31.16 150.18 -27 153 C-26.24 153.54 -25.48 154.08 -24.7 154.63 C-21.12 156.59 -21.12 156.59 -13 158 C-13 150.74 -13 143.48 -13 136 C-16.3 135.01 -19.6 134.02 -23 133 C-25.91 131.54 -25.91 131.54 -28.06 130.06 C-28.8 129.58 -29.53 129.1 -30.29 128.6 C-32.29 126.73 -32.86 125.74 -33 123 C-31.4 120.95 -29.73 118.94 -28 117 C-28 116.34 -28 115.68 -28 115 C-25.69 115.66 -23.38 116.32 -21 117 C-21 117.66 -21 118.32 -21 119 C-15.24 123.32 -8.07 124.64 -1 124 C2.41 123.05 5.23 121.96 7.5 119.12 C8.17 116.28 8.03 114.75 7 112 C2.87 107.89 -1.33 106.81 -6.81 105.5 C-12.4 104.14 -17.32 102.56 -22.38 99.79 C-24 98.85 -24 98.85 -26 99 C-26 98.34 -26 97.68 -26 97 C-26.66 97 -27.32 97 -28 97 C-30.64 89.33 -32.85 82.59 -29.38 74.81 C-25.26 67.49 -19.69 65.42 -12 62 C-12.49 49.13 -12.49 49.13 -13 36 C-14.93 36 -16.27 38.1 -17.56 39.38 Z " fill="#F5C518" transform="translate(335,196)"/>
<path d="M0 0 C0.33 0 0.66 0 1 0 C1 25.41 1 50.82 1 77 C9.25 77 17.5 77 26 77 C36.05 83.89 36.05 83.89 40 89 C40 89.66 40 90.32 40 91 C35.52 91.87 31.28 92.13 26.72 92.13 C26.01 92.13 25.3 92.13 24.56 92.13 C22.19 92.14 19.82 92.13 17.45 92.13 C15.75 92.13 14.05 92.13 12.34 92.13 C7.73 92.14 3.11 92.14 -1.51 92.13 C-6.34 92.13 -11.17 92.13 -16 92.14 C-24.1 92.14 -32.21 92.14 -40.31 92.13 C-49.69 92.12 -59.07 92.13 -68.46 92.13 C-76.51 92.14 -84.56 92.14 -92.61 92.13 C-97.42 92.13 -102.23 92.13 -107.04 92.14 C-111.56 92.14 -116.07 92.14 -120.59 92.13 C-122.25 92.13 -123.91 92.13 -125.58 92.13 C-127.83 92.14 -130.09 92.13 -132.35 92.13 C-133.62 92.13 -134.89 92.13 -136.19 92.13 C-139 92 -139 92 -140 91 C-140.07 88.65 -140.08 86.29 -140.06 83.94 C-140.05 82.65 -140.04 81.36 -140.04 80.03 C-140.02 79.03 -140.01 78.03 -140 77 C-135.71 77 -131.42 77 -127 77 C-127.04 75.89 -127.07 74.77 -127.11 73.62 C-127.24 69.47 -127.32 65.31 -127.38 61.15 C-127.42 59.35 -127.47 57.56 -127.53 55.76 C-128.02 40.84 -128.02 40.84 -125.54 36.37 C-123.79 34.63 -122.07 33.33 -120 32 C-118.71 30.6 -117.43 29.19 -116.19 27.75 C-115.62 27.11 -115.06 26.46 -114.48 25.8 C-112.83 23.86 -112.83 23.86 -111 21 C-110.34 21 -109.68 21 -109 21 C-108.73 20.36 -108.46 19.72 -108.19 19.06 C-107 17 -107 17 -104 16 C-104 15.34 -104 14.68 -104 14 C-103.01 14.33 -102.02 14.66 -101 15 C-101 35.46 -101 55.92 -101 77 C-98.36 77 -95.72 77 -93 77 C-93 77.33 -93 77.66 -93 78 C-95.97 78 -98.94 78 -102 78 C-102 78.66 -102 79.32 -102 80 C-100.68 80.33 -99.36 80.66 -98 81 C-98.99 81.5 -98.99 81.5 -100 82 C-98.68 82.33 -97.36 82.66 -96 83 C-96 84.98 -96 86.96 -96 89 C-54.09 89 -12.18 89 31 89 C29.12 85.23 28.31 84.21 25 82 C25.66 82 26.32 82 27 82 C27 81.34 27 80.68 27 80 C22.55 80.5 22.55 80.5 18 81 C18 80.34 18 79.68 18 79 C16.18 79.13 16.18 79.13 14.32 79.25 C12.73 79.36 11.15 79.46 9.56 79.56 C8.76 79.62 7.96 79.67 7.13 79.73 C5.09 79.86 3.04 79.94 1 80 C-0.71 78.29 -0.12 76.14 -0.12 73.86 C-0.12 73.13 -0.12 72.39 -0.11 71.63 C-0.11 70.86 -0.11 70.09 -0.11 69.3 C-0.11 66.74 -0.11 64.18 -0.1 61.62 C-0.1 59.85 -0.09 58.08 -0.09 56.31 C-0.09 51.64 -0.08 46.98 -0.07 42.31 C-0.06 37.55 -0.05 32.79 -0.05 28.03 C-0.04 18.69 -0.02 9.34 0 0 Z " fill="#F5C518" transform="translate(254,279)"/>
<path d="M0 0 C0.99 0.49 0.99 0.49 2 1 C2.62 3.06 2.62 3.06 3 5 C2.34 5 1.68 5 1 5 C0.74 5.57 0.48 6.14 0.22 6.73 C-1.11 9.21 -2.65 11.13 -4.5 13.25 C-5.11 13.96 -5.72 14.66 -6.34 15.39 C-8 17 -8 17 -10 17 C-10 17.66 -10 18.32 -10 19 C-10.66 19 -11.32 19 -12 19 C-12.24 19.57 -12.49 20.14 -12.74 20.73 C-14.23 23.4 -15.98 25.14 -18.19 27.25 C-21.09 30.08 -23.87 32.92 -26.5 36 C-29.85 39.92 -33.48 43.52 -37.18 47.12 C-39.06 48.88 -39.06 48.88 -40 51 C-40.66 51 -41.32 51 -42 51 C-42.26 51.58 -42.52 52.16 -42.79 52.76 C-44.09 55.16 -45.52 56.82 -47.41 58.79 C-48.07 59.48 -48.73 60.18 -49.41 60.89 C-50.1 61.61 -50.79 62.32 -51.5 63.06 C-52.87 64.49 -54.23 65.92 -55.59 67.35 C-56.2 67.98 -56.8 68.61 -57.43 69.25 C-59.18 71.12 -59.18 71.12 -61 74 C-61.66 74 -62.32 74 -63 74 C-63 74.66 -63 75.32 -63 76 C-66.45 74.52 -68.67 72.57 -71.31 69.92 C-72.15 69.08 -72.99 68.24 -73.86 67.37 C-75.2 66.01 -75.2 66.01 -76.58 64.62 C-77.5 63.69 -78.43 62.76 -79.39 61.8 C-81.84 59.34 -84.29 56.87 -86.74 54.39 C-89.25 51.87 -91.76 49.35 -94.27 46.83 C-99.18 41.89 -104.09 36.95 -109 32 C-108.04 30.71 -107.08 29.42 -106.12 28.12 C-105.59 27.41 -105.06 26.69 -104.51 25.95 C-103 24 -103 24 -101 22 C-97.62 22.33 -95.95 23.69 -93.61 26.05 C-92.97 26.69 -92.33 27.33 -91.67 27.99 C-90.99 28.69 -90.31 29.38 -89.61 30.1 C-88.9 30.81 -88.2 31.52 -87.47 32.25 C-85.23 34.51 -82.99 36.79 -80.75 39.06 C-79.23 40.6 -77.7 42.14 -76.18 43.67 C-72.45 47.44 -68.72 51.22 -65 55 C-64.22 54.2 -63.44 53.39 -62.64 52.57 C-60 50 -60 50 -57.81 48.94 C-55.84 48.15 -55.84 48.15 -55.09 46.14 C-53.92 43.84 -52.69 42.52 -50.81 40.75 C-48.36 38.37 -46.04 35.96 -43.81 33.38 C-39.2 28.03 -34.38 22.89 -29.59 17.72 C-26.97 14.88 -24.36 12.03 -21.75 9.19 C-21.27 8.67 -20.79 8.14 -20.3 7.61 C-19.2 6.4 -18.1 5.2 -17 4 C-17 7.13 -17.42 8.37 -19 11 C-19.66 11.33 -20.32 11.66 -21 12 C-21 13.32 -21 14.64 -21 16 C-17.45 14.6 -17.45 14.6 -14 13 C-13.01 14.48 -13.01 14.48 -12 16 C-11.63 15.07 -11.63 15.07 -11.25 14.12 C-9.76 11.6 -8.56 11.28 -6 10 C-4.87 7.98 -4.87 7.98 -4 6 C-3.34 5.67 -2.68 5.34 -2 5 C-1.01 5.5 -1.01 5.5 0 6 C0 4.02 0 2.04 0 0 Z " fill="#F5C518" transform="translate(322,190)"/>
<path d="M0 0 C1.98 0 3.96 0 6 0 C7.24 3.71 6.75 6.74 6.29 10.54 C6.21 11.29 6.12 12.04 6.03 12.81 C5.76 15.23 5.47 17.65 5.19 20.06 C5.01 21.63 4.83 23.2 4.65 24.77 C4.28 27.92 3.92 31.08 3.55 34.23 C2.13 46.47 0.79 58.7 -0.3 70.97 C-0.67 75.04 -1.07 79.01 -2 83 C-3.32 82.67 -4.64 82.34 -6 82 C-6 81.34 -6 80.68 -6 80 C-6.56 79.77 -7.11 79.55 -7.68 79.31 C-10.67 77.62 -12.69 75.46 -15.06 73 C-17.65 70.32 -19.89 68.07 -23 66 C-23 65.34 -23 64.68 -23 64 C-23.66 64 -24.32 64 -25 64 C-25 63.34 -25 62.68 -25 62 C-25.76 62.67 -25.76 62.67 -26.54 63.36 C-30.65 66.96 -34.78 70.52 -39 74 C-39.33 73.01 -39.66 72.02 -40 71 C-40.33 72.65 -40.66 74.3 -41 76 C-41.6 76.06 -42.2 76.12 -42.81 76.19 C-45.88 77.33 -46.35 79.21 -48 82 C-49.91 83.81 -51.92 85.38 -54 87 C-54.66 86.01 -55.32 85.02 -56 84 C-56.6 84.52 -57.2 85.03 -57.81 85.56 C-58.53 86.04 -59.26 86.51 -60 87 C-60.99 86.67 -61.98 86.34 -63 86 C-62.67 84.35 -62.34 82.7 -62 81 C-61.34 81 -60.68 81 -60 81 C-59.92 80.46 -59.84 79.93 -59.75 79.38 C-57.97 73.74 -54 69.87 -49.86 65.86 C-45.67 61.68 -41.89 57.11 -38.19 52.5 C-37.47 51.67 -36.74 50.85 -36 50 C-35.34 50 -34.68 50 -34 50 C-34 49.34 -34 48.68 -34 48 C-32.62 46.38 -32.62 46.38 -31 45 C-30.34 45 -29.68 45 -29 45 C-29 44.34 -29 43.68 -29 43 C-28.01 42.67 -27.02 42.34 -26 42 C-25.01 42.49 -25.01 42.49 -24 43 C-24 43.66 -24 44.32 -24 45 C-23.01 45.33 -22.02 45.66 -21 46 C-21 46.66 -21 47.32 -21 48 C-20.34 48 -19.68 48 -19 48 C-19 48.66 -19 49.32 -19 50 C-18.34 50 -17.68 50 -17 50 C-17 50.66 -17 51.32 -17 52 C-16.34 52 -15.68 52 -15 52 C-15 52.66 -15 53.32 -15 54 C-14.34 54 -13.68 54 -13 54 C-13.02 53.37 -13.05 52.73 -13.07 52.08 C-13.22 44.25 -12.56 36.62 -11.71 28.86 C-11.62 28.03 -11.53 27.2 -11.44 26.34 C-11.35 25.6 -11.27 24.86 -11.18 24.1 C-11.01 22.07 -11 20.03 -11 18 C-13.97 17.67 -16.94 17.34 -20 17 C-20 16.67 -20 16.34 -20 16 C-19.17 15.94 -18.34 15.88 -17.48 15.82 C-16.39 15.73 -15.31 15.65 -14.19 15.56 C-13.11 15.48 -12.03 15.4 -10.92 15.32 C-7.94 15.1 -7.94 15.1 -5 14 C-3.95 12.15 -3.95 12.15 -3 10 C-0.96 6.84 0.69 5.66 4 4 C4.33 3.01 4.66 2.02 5 1 C3.35 1 1.7 1 0 1 C0 0.67 0 0.34 0 0 Z " fill="#F5C518" transform="translate(363,120)"/>
<path d="M0 0 C0.33 0 0.66 0 1 0 C1 25.41 1 50.82 1 77 C9.25 77 17.5 77 26 77 C36.05 83.89 36.05 83.89 40 89 C40 89.66 40 90.32 40 91 C35.52 91.87 31.28 92.13 26.72 92.13 C26.01 92.13 25.3 92.13 24.56 92.13 C22.19 92.14 19.82 92.13 17.45 92.13 C15.75 92.13 14.05 92.13 12.34 92.13 C7.73 92.14 3.11 92.14 -1.51 92.13 C-6.34 92.13 -11.17 92.13 -16 92.14 C-24.1 92.14 -32.21 92.14 -40.31 92.13 C-49.69 92.12 -59.07 92.13 -68.46 92.13 C-76.51 92.14 -84.56 92.14 -92.61 92.13 C-97.42 92.13 -102.23 92.13 -107.04 92.14 C-111.56 92.14 -116.07 92.14 -120.59 92.13 C-122.25 92.13 -123.91 92.13 -125.58 92.13 C-127.83 92.14 -130.09 92.13 -132.35 92.13 C-133.62 92.13 -134.89 92.13 -136.19 92.13 C-139 92 -139 92 -140 91 C-140.07 88.65 -140.08 86.29 -140.06 83.94 C-140.05 82.65 -140.04 81.36 -140.04 80.03 C-140.02 79.03 -140.01 78.03 -140 77 C-135.71 77 -131.42 77 -127 77 C-127 64.46 -127 51.92 -127 39 C-126.67 39 -126.34 39 -126 39 C-125.83 43.06 -125.66 47.12 -125.5 51.19 C-125.45 52.32 -125.4 53.45 -125.36 54.62 C-125.04 62.41 -124.94 70.19 -125 78 C-128.75 80 -128.75 80 -131 80 C-133 80.32 -135 80.65 -137 81 C-136.67 83.64 -136.34 86.28 -136 89 C-80.89 89 -25.78 89 31 89 C29.12 85.23 28.31 84.21 25 82 C25.66 82 26.32 82 27 82 C27 81.34 27 80.68 27 80 C22.55 80.5 22.55 80.5 18 81 C18 80.34 18 79.68 18 79 C16.18 79.13 16.18 79.13 14.32 79.25 C12.73 79.36 11.15 79.46 9.56 79.56 C8.76 79.62 7.96 79.67 7.13 79.73 C5.09 79.86 3.04 79.94 1 80 C-0.71 78.29 -0.12 76.14 -0.12 73.86 C-0.12 73.13 -0.12 72.39 -0.11 71.63 C-0.11 70.86 -0.11 70.09 -0.11 69.3 C-0.11 66.74 -0.11 64.18 -0.1 61.62 C-0.1 59.85 -0.09 58.08 -0.09 56.31 C-0.09 51.64 -0.08 46.98 -0.07 42.31 C-0.06 37.55 -0.05 32.79 -0.05 28.03 C-0.04 18.69 -0.02 9.34 0 0 Z " fill="#F5C518" transform="translate(254,279)"/>
<path d="M0 0 C0.66 0.33 1.32 0.66 2 1 C2 21.13 2 41.26 2 62 C4.97 62.66 7.94 63.32 11 64 C13.81 65.18 13.81 65.18 16 66.44 C16.74 66.85 17.48 67.26 18.25 67.68 C20 69 20 69 21 72 C19.86 74.23 19.86 74.23 18.19 76.62 C17.64 77.42 17.1 78.22 16.54 79.04 C15 81 15 81 13 82 C11.3 81.03 9.6 80.06 7.93 79.06 C2.3 75.97 -3.7 75.13 -9.96 76.39 C-12.18 77.01 -12.18 77.01 -15 79 C-15.66 81.93 -15.94 84.08 -16 87 C-16.31 88.67 -16.64 90.34 -17 92 C-15.35 92 -13.7 92 -12 92 C-13.38 94 -13.38 94 -15 96 C-15.66 96 -16.32 96 -17 96 C-17 96.99 -17 97.98 -17 99 C-19.31 98.34 -21.62 97.68 -24 97 C-23.25 92.25 -23.25 92.25 -21 90 C-21.33 89.01 -21.66 88.02 -22 87 C-25.46 87.5 -25.46 87.5 -29 88 C-29 87.34 -29 86.68 -29 86 C-29.66 86 -30.32 86 -31 86 C-31.6 80.57 -31.74 76.27 -28.5 71.69 C-24.22 66.68 -19.37 63.59 -13 62 C-13.49 49.62 -13.49 49.62 -14 37 C-16.31 39.64 -18.62 42.28 -21 45 C-21.66 45 -22.32 45 -23 45 C-23.34 45.83 -23.34 45.83 -23.68 46.67 C-25.4 49.71 -27.63 51.81 -30.12 54.25 C-31.04 55.14 -31.95 56.03 -32.88 56.95 C-33.93 57.97 -33.93 57.97 -35 59 C-35.33 58.34 -35.66 57.68 -36 57 C-36.66 57 -37.32 57 -38 57 C-38.08 57.58 -38.16 58.16 -38.25 58.75 C-39.21 61.62 -40.78 63 -43 65 C-43.99 64.67 -44.98 64.34 -46 64 C-46 63.01 -46 62.02 -46 61 C-46.99 60.34 -47.98 59.68 -49 59 C-47.48 56.37 -46.16 54.16 -44 52 C-44 51.2 -44 50.39 -44 49.56 C-44 47 -44 47 -42 44 C-41.34 44 -40.68 44 -40 44 C-39.73 43.42 -39.46 42.84 -39.19 42.25 C-37.97 39.94 -36.7 37.98 -35 36 C-34.34 36 -33.68 36 -33 36 C-33 35.34 -33 34.68 -33 34 C-31.62 32.38 -31.62 32.38 -30 31 C-29.34 31 -28.68 31 -28 31 C-27.77 30.45 -27.55 29.89 -27.32 29.32 C-25.61 26.31 -23.42 24.27 -20.94 21.88 C-17.54 18.76 -17.54 18.76 -15 15 C-14.34 15 -13.68 15 -13 15 C-12.75 14.42 -12.5 13.85 -12.25 13.25 C-10.82 10.68 -9.18 8.98 -7.06 6.94 C-6.37 6.27 -5.68 5.59 -4.97 4.9 C-4.32 4.27 -3.67 3.65 -3 3 C-2 2 -1 1 0 0 Z M-47 65 C-46 69 -46 69 -46 69 Z " fill="#F5C518" transform="translate(335,196)"/>
<path d="M0 0 C0.62 1.88 0.62 1.88 1 4 C-0.29 5.38 -1.63 6.71 -3 8 C-3.79 10.14 -3.79 10.14 -4 12 C-3.67 11.67 -3.34 11.34 -3 11 C-1.35 11.66 0.3 12.32 2 13 C2 13.66 2 14.32 2 15 C2.99 14.34 3.98 13.68 5 13 C5.99 13.33 6.98 13.66 8 14 C6.38 16.04 4.71 18.04 3 20 C2.34 20 1.68 20 1 20 C0.73 20.58 0.46 21.17 0.19 21.77 C-1.01 24.03 -2.34 25.81 -4 27.75 C-4.52 28.36 -5.03 28.98 -5.56 29.61 C-7 31 -7 31 -9 31 C-9 31.66 -9 32.32 -9 33 C-9.66 33 -10.32 33 -11 33 C-11.22 33.54 -11.45 34.08 -11.68 34.64 C-13.42 37.75 -15.75 40.18 -18.19 42.75 C-19.19 43.83 -20.2 44.91 -21.2 45.98 C-21.68 46.5 -22.17 47.02 -22.67 47.56 C-24.32 49.34 -25.91 51.16 -27.5 53 C-30.44 56.39 -33.46 59.7 -36.5 63 C-43.89 70.81 -43.89 70.81 -50.56 79.22 C-51.27 80.1 -51.27 80.1 -52 81 C-52.66 81 -53.32 81 -54 81 C-54.33 81.99 -54.66 82.98 -55 84 C-56.48 84.5 -56.48 84.5 -58 85 C-60.97 82.36 -63.94 79.72 -67 77 C-66.08 73.31 -65.45 71.74 -63 69 C-62.34 69 -61.68 69 -61 69 C-61 68.34 -61 67.68 -61 67 C-60.34 67 -59.68 67 -59 67 C-58.73 66.41 -58.46 65.82 -58.19 65.21 C-56.99 62.98 -55.74 61.44 -54 59.62 C-53.42 59.01 -52.84 58.4 -52.25 57.77 C-51.65 57.14 -51.05 56.52 -50.44 55.88 C-49.25 54.62 -48.06 53.37 -46.87 52.12 C-46.34 51.57 -45.82 51.02 -45.28 50.45 C-43.9 49.01 -43.9 49.01 -43 47 C-42.34 47 -41.68 47 -41 47 C-40.67 46.19 -40.67 46.19 -40.32 45.36 C-38.58 42.25 -36.25 39.82 -33.81 37.25 C-32.82 36.18 -31.82 35.12 -30.83 34.05 C-30.35 33.53 -29.86 33.01 -29.37 32.47 C-24.14 26.84 -24.14 26.84 -19.44 20.78 C-18.96 20.19 -18.49 19.61 -18 19 C-17.34 19 -16.68 19 -16 19 C-15.74 18.41 -15.47 17.81 -15.2 17.2 C-13.96 14.92 -12.7 13.53 -10.81 11.75 C-6.97 8.03 -3.47 4.06 0 0 Z " fill="#F5C518" transform="translate(184,219)"/>
</svg>